<svg style="enable-background:new 0 0 457.1 167.6" xmlns="http://www.w3.org/2000/svg" viewBox="0 0 457.1 167.6" version="1.1" y="0px" x="0px"><style type="text/css">.st0{fill:#FF4157;}
	.st1{fill:#B53043;}
	.st2{fill:#FFFFFF;}</style><path class="st0" d="m98.4 108.5v-100.6h20.7v89.7h28.7v23.9c0 4-3.2 7.2-7.2 7.2h-21.6v24c0 3.9-3.2 7.1-7.1 7.1h-13.6v-45.8h31.3c1.5 0 2.8-1.2 2.8-2.8v-2.8l-34 0.1z"/><path class="st1" d="m380.7 97.7c3.2 0 5.8-2.6 5.9-5.8l0.6-54-34.9 48.6c-3.4 4.7 0 11.2 5.7 11.2h22.7zm-48.5-0.5l61.2-83.3-0.2 94.5h-55.3c-5.8 0.1-9.1-6.5-5.7-11.2z"/><path class="st2" d="m92.4 159.7h-0.5 0.5z"/><path class="st2" d="m227.1 5.7h0.3-2.7 2.4z"/><path class="st0" d="m89.9 7.9l-74.3 101c0 2.8 2.3 5.1 5.1 5.1h71.3v45.8c-3.7-0.2-6.7-3.3-6.7-7.1v-23.9h-70.2c-3.9 0-7.1-3.2-7.1-7.1v-11c0-1.5 0.5-3 1.4-4.2l71.7-98.6h8.8z"/><path class="st2" d="m393.7 159.7h-0.5 0.5z"/><path class="st1" d="m191.6 30c8.2-12.4 20-18.6 35.5-18.6s27.4 6.2 35.7 18.6c8.3 12.4 12.4 30.4 12.4 53.8s-4.1 41.4-12.4 53.8c-8.3 12.4-20.2 18.6-35.7 18.6s-27.3-6.2-35.5-18.6c-8.2-12.4-12.3-30.4-12.3-53.8s4.1-41.3 12.3-53.8zm16.9 53.8c0 10.7 0.6 19.1 1.8 25.2s3.2 10.4 6 13.1 6.6 4 11.5 4c4.7 0 8.5-1.3 11.3-4s4.7-7.1 6-13.1c1.2-6 1.8-14.4 1.8-25.2s-0.6-19.1-1.8-25.2c-1.2-6.1-3.2-10.4-6-13.1s-6.5-4-11.3-4c-4.9 0-8.7 1.3-11.5 4s-4.8 7.1-6 13.1c-1.2 6.1-1.8 14.5-1.8 25.2z"/><path class="st2" d="m227.5 162.1h-0.3-2.4c0.9-0.1 1.8 0 2.7 0z"/><path class="st1" d="m85.9 37.9l-34.8 48.6c-3.4 4.7 0 11.2 5.7 11.2h22.6c3.2 0 5.8-2.6 5.9-5.8l0.6-54zm6.2-24l-0.2 94.5h-55.3c-5.8 0-9.1-6.6-5.7-11.2l61.2-83.3z"/><path class="st0" d="m420.4 97.7h28.7v23.9c0 4-3.2 7.2-7.2 7.2h-21.6v24c0 3.9-3.2 7.1-7.1 7.1h-13.7v-45.9h31.5c1.5 0 2.8-1.2 2.8-2.8v-2.8h-34.1v-100.5h20.7v89.8z"/><path class="st0" d="m186.7 25.9c-9.4 13.5-14 32.8-14 58s4.7 44.5 14 58c8.9 12.8 21.5 19.6 37.9 20.2-20.5-0.6-35.8-7.1-46.1-19.5-10.8-13-16.2-32.6-16.2-58.7s5.4-45.6 16.2-58.7c10.3-12.4 25.6-18.9 46.1-19.5-16.4 0.6-29 7.4-37.9 20.2z"/><path class="st0" d="m391.1 7.9l-74.3 101c0 2.8 2.3 5.1 5.1 5.1h71.3v45.8c-3.7-0.2-6.7-3.3-6.7-7.1v-23.9h-70.2c-3.9 0-7.1-3.2-7.1-7.1v-11c0-1.5 0.5-3 1.4-4.2l71.8-98.5 8.7-0.1z"/><path class="st0" d="m227.8 5.7c21.9 0 38.3 6.5 49.1 19.6 10.8 13 16.2 32.6 16.2 58.7s-5.4 45.6-16.2 58.7c-10.8 13-27.2 19.6-49.1 19.6h-0.4c17.5-0.1 30.9-6.8 40.2-20.2 9.4-13.5 14-32.8 14-58 0-25.1-4.7-44.5-14-58-9.3-13.4-22.7-20.2-40.2-20.2 0.2-0.2 0.3-0.2 0.4-0.2z"/></svg>
